<mxfile host="app.diagrams.net" modified="2024-05-01T11:53:12.736Z" agent="Mozilla/5.0 (Windows NT 10.0; Win64; x64) AppleWebKit/537.36 (KHTML, like Gecko) Chrome/124.0.0.0 Safari/537.36" etag="S4r1r1QU1gBBu8ONSf5c" version="24.2.2" type="github">
  <diagram name="Страница — 1" id="yJOy_pn6kIMlKneUiEC-">
    <mxGraphModel dx="2231" dy="1219" grid="1" gridSize="10" guides="1" tooltips="1" connect="1" arrows="1" fold="1" page="1" pageScale="1" pageWidth="827" pageHeight="1169" math="0" shadow="0">
      <root>
        <mxCell id="0" />
        <mxCell id="1" parent="0" />
        <mxCell id="NPeCFhylCLNc86PD0ue4-5" value="Фирма страхования" style="swimlane;childLayout=stackLayout;resizeParent=1;resizeParentMax=0;startSize=20;html=1;" vertex="1" parent="1">
          <mxGeometry x="230.00000000000045" y="110" width="609.9999999999995" height="800" as="geometry" />
        </mxCell>
        <mxCell id="NPeCFhylCLNc86PD0ue4-6" value="Клиент" style="swimlane;startSize=20;html=1;" vertex="1" parent="NPeCFhylCLNc86PD0ue4-5">
          <mxGeometry y="20" width="200" height="780" as="geometry" />
        </mxCell>
        <mxCell id="NPeCFhylCLNc86PD0ue4-9" value="Запрос на получение страхования" style="rounded=1;whiteSpace=wrap;html=1;arcSize=40;fontColor=#000000;fillColor=#ffffc0;strokeColor=#ff0000;" vertex="1" parent="NPeCFhylCLNc86PD0ue4-6">
          <mxGeometry x="33.75" y="80" width="132.5" height="40" as="geometry" />
        </mxCell>
        <mxCell id="NPeCFhylCLNc86PD0ue4-10" value="" style="edgeStyle=orthogonalEdgeStyle;html=1;verticalAlign=bottom;endArrow=open;endSize=8;strokeColor=#ff0000;rounded=0;entryX=0.5;entryY=0;entryDx=0;entryDy=0;" edge="1" source="NPeCFhylCLNc86PD0ue4-9" parent="NPeCFhylCLNc86PD0ue4-6" target="NPeCFhylCLNc86PD0ue4-11">
          <mxGeometry relative="1" as="geometry">
            <mxPoint x="84.99999999999955" y="110" as="targetPoint" />
          </mxGeometry>
        </mxCell>
        <mxCell id="NPeCFhylCLNc86PD0ue4-11" value="Выбор вида страхования" style="rounded=1;whiteSpace=wrap;html=1;arcSize=40;fontColor=#000000;fillColor=#ffffc0;strokeColor=#ff0000;" vertex="1" parent="NPeCFhylCLNc86PD0ue4-6">
          <mxGeometry x="33.75" y="150" width="132.5" height="40" as="geometry" />
        </mxCell>
        <mxCell id="NPeCFhylCLNc86PD0ue4-16" value="Заполнение всех необходимых документов" style="rounded=1;whiteSpace=wrap;html=1;arcSize=40;fontColor=#000000;fillColor=#ffffc0;strokeColor=#ff0000;" vertex="1" parent="NPeCFhylCLNc86PD0ue4-6">
          <mxGeometry x="28.75" y="220" width="142.5" height="60" as="geometry" />
        </mxCell>
        <mxCell id="NPeCFhylCLNc86PD0ue4-36" value="Оплата услуги" style="rounded=1;whiteSpace=wrap;html=1;arcSize=40;fontColor=#000000;fillColor=#ffffc0;strokeColor=#ff0000;" vertex="1" parent="NPeCFhylCLNc86PD0ue4-6">
          <mxGeometry x="18.749999999999545" y="530" width="162.5" height="50" as="geometry" />
        </mxCell>
        <mxCell id="NPeCFhylCLNc86PD0ue4-45" value="" style="ellipse;html=1;shape=startState;fillColor=#000000;strokeColor=#ff0000;" vertex="1" parent="NPeCFhylCLNc86PD0ue4-6">
          <mxGeometry x="84.99999999999955" y="31" width="30" height="30" as="geometry" />
        </mxCell>
        <mxCell id="NPeCFhylCLNc86PD0ue4-46" value="" style="edgeStyle=orthogonalEdgeStyle;html=1;verticalAlign=bottom;endArrow=open;endSize=8;strokeColor=#ff0000;rounded=0;" edge="1" source="NPeCFhylCLNc86PD0ue4-45" parent="NPeCFhylCLNc86PD0ue4-6">
          <mxGeometry relative="1" as="geometry">
            <mxPoint x="99.99999999999955" y="80" as="targetPoint" />
          </mxGeometry>
        </mxCell>
        <mxCell id="NPeCFhylCLNc86PD0ue4-7" value="Агент страхования" style="swimlane;startSize=20;html=1;" vertex="1" parent="NPeCFhylCLNc86PD0ue4-5">
          <mxGeometry x="200" y="20" width="209.99999999999955" height="780" as="geometry" />
        </mxCell>
        <mxCell id="NPeCFhylCLNc86PD0ue4-12" value="Получение запроса от клиента" style="rounded=1;whiteSpace=wrap;html=1;arcSize=40;fontColor=#000000;fillColor=#ffffc0;strokeColor=#ff0000;" vertex="1" parent="NPeCFhylCLNc86PD0ue4-7">
          <mxGeometry x="39.999999999999545" y="150" width="120" height="40" as="geometry" />
        </mxCell>
        <mxCell id="NPeCFhylCLNc86PD0ue4-13" value="" style="edgeStyle=orthogonalEdgeStyle;html=1;verticalAlign=bottom;endArrow=open;endSize=8;strokeColor=#ff0000;rounded=0;entryX=0.5;entryY=0;entryDx=0;entryDy=0;" edge="1" source="NPeCFhylCLNc86PD0ue4-12" parent="NPeCFhylCLNc86PD0ue4-7" target="NPeCFhylCLNc86PD0ue4-15">
          <mxGeometry relative="1" as="geometry">
            <mxPoint x="84.99999999999955" y="180" as="targetPoint" />
          </mxGeometry>
        </mxCell>
        <mxCell id="NPeCFhylCLNc86PD0ue4-15" value="Подготовка необходимых документов для заполнения" style="rounded=1;whiteSpace=wrap;html=1;arcSize=40;fontColor=#000000;fillColor=#ffffc0;strokeColor=#ff0000;" vertex="1" parent="NPeCFhylCLNc86PD0ue4-7">
          <mxGeometry x="18.75" y="225" width="162.5" height="50" as="geometry" />
        </mxCell>
        <mxCell id="NPeCFhylCLNc86PD0ue4-18" value="Проверка на коррекнтое заполнение документов" style="rounded=1;whiteSpace=wrap;html=1;arcSize=40;fontColor=#000000;fillColor=#ffffc0;strokeColor=#ff0000;" vertex="1" parent="NPeCFhylCLNc86PD0ue4-7">
          <mxGeometry x="18.75" y="330" width="162.5" height="50" as="geometry" />
        </mxCell>
        <mxCell id="NPeCFhylCLNc86PD0ue4-21" value="" style="rhombus;whiteSpace=wrap;html=1;fontColor=#000000;fillColor=#ffffc0;strokeColor=#ff0000;" vertex="1" parent="NPeCFhylCLNc86PD0ue4-7">
          <mxGeometry x="59.999999999999545" y="410" width="80" height="40" as="geometry" />
        </mxCell>
        <mxCell id="NPeCFhylCLNc86PD0ue4-24" value="" style="edgeStyle=orthogonalEdgeStyle;html=1;verticalAlign=bottom;endArrow=open;endSize=8;strokeColor=#ff0000;rounded=0;exitX=0.5;exitY=1;exitDx=0;exitDy=0;entryX=0.5;entryY=0;entryDx=0;entryDy=0;" edge="1" parent="NPeCFhylCLNc86PD0ue4-7" source="NPeCFhylCLNc86PD0ue4-18" target="NPeCFhylCLNc86PD0ue4-21">
          <mxGeometry relative="1" as="geometry">
            <mxPoint x="110" y="290" as="targetPoint" />
            <mxPoint x="-90" y="250" as="sourcePoint" />
          </mxGeometry>
        </mxCell>
        <mxCell id="NPeCFhylCLNc86PD0ue4-34" value="Выставление счёта на оплату" style="rounded=1;whiteSpace=wrap;html=1;arcSize=40;fontColor=#000000;fillColor=#ffffc0;strokeColor=#ff0000;" vertex="1" parent="NPeCFhylCLNc86PD0ue4-7">
          <mxGeometry x="18.749999999999545" y="530" width="162.5" height="50" as="geometry" />
        </mxCell>
        <mxCell id="NPeCFhylCLNc86PD0ue4-49" value="Успешное завершение операции" style="rounded=1;whiteSpace=wrap;html=1;arcSize=40;fontColor=#000000;fillColor=#ffffc0;strokeColor=#ff0000;" vertex="1" parent="NPeCFhylCLNc86PD0ue4-7">
          <mxGeometry x="18.749999999999545" y="630" width="162.5" height="50" as="geometry" />
        </mxCell>
        <mxCell id="NPeCFhylCLNc86PD0ue4-51" value="" style="ellipse;html=1;shape=endState;fillColor=#000000;strokeColor=#ff0000;" vertex="1" parent="NPeCFhylCLNc86PD0ue4-7">
          <mxGeometry x="84.99999999999955" y="720" width="30" height="30" as="geometry" />
        </mxCell>
        <mxCell id="NPeCFhylCLNc86PD0ue4-52" value="" style="edgeStyle=orthogonalEdgeStyle;html=1;verticalAlign=bottom;endArrow=open;endSize=8;strokeColor=#ff0000;rounded=0;exitX=0.5;exitY=1;exitDx=0;exitDy=0;entryX=0.5;entryY=0;entryDx=0;entryDy=0;" edge="1" parent="NPeCFhylCLNc86PD0ue4-7" source="NPeCFhylCLNc86PD0ue4-49" target="NPeCFhylCLNc86PD0ue4-51">
          <mxGeometry relative="1" as="geometry">
            <mxPoint x="1" y="575" as="targetPoint" />
            <mxPoint x="39" y="575" as="sourcePoint" />
          </mxGeometry>
        </mxCell>
        <mxCell id="NPeCFhylCLNc86PD0ue4-8" value="База данных" style="swimlane;startSize=20;html=1;" vertex="1" parent="NPeCFhylCLNc86PD0ue4-5">
          <mxGeometry x="409.99999999999955" y="20" width="200" height="780" as="geometry" />
        </mxCell>
        <mxCell id="NPeCFhylCLNc86PD0ue4-26" value="Занесение данных из документов в базу" style="rounded=1;whiteSpace=wrap;html=1;arcSize=40;fontColor=#000000;fillColor=#ffffc0;strokeColor=#ff0000;" vertex="1" parent="NPeCFhylCLNc86PD0ue4-8">
          <mxGeometry x="18.75" y="530" width="162.5" height="50" as="geometry" />
        </mxCell>
        <mxCell id="NPeCFhylCLNc86PD0ue4-28" value="" style="shape=line;html=1;strokeWidth=6;strokeColor=#FF0000;" vertex="1" parent="NPeCFhylCLNc86PD0ue4-8">
          <mxGeometry x="-400" y="490" width="590" height="10" as="geometry" />
        </mxCell>
        <mxCell id="NPeCFhylCLNc86PD0ue4-29" value="" style="edgeStyle=orthogonalEdgeStyle;html=1;verticalAlign=bottom;endArrow=open;endSize=8;strokeColor=#FF0000;rounded=0;entryX=0.5;entryY=0;entryDx=0;entryDy=0;exitX=0.847;exitY=0.728;exitDx=0;exitDy=0;exitPerimeter=0;" edge="1" source="NPeCFhylCLNc86PD0ue4-28" parent="NPeCFhylCLNc86PD0ue4-8" target="NPeCFhylCLNc86PD0ue4-26">
          <mxGeometry relative="1" as="geometry">
            <mxPoint x="-100" y="640" as="targetPoint" />
            <mxPoint x="100" y="500" as="sourcePoint" />
            <Array as="points">
              <mxPoint x="100" y="520" />
              <mxPoint x="100" y="520" />
            </Array>
          </mxGeometry>
        </mxCell>
        <mxCell id="NPeCFhylCLNc86PD0ue4-47" value="Занесение данных о страховании в базу" style="rounded=1;whiteSpace=wrap;html=1;arcSize=40;fontColor=#000000;fillColor=#ffffc0;strokeColor=#ff0000;" vertex="1" parent="NPeCFhylCLNc86PD0ue4-8">
          <mxGeometry x="18.75" y="630" width="162.5" height="50" as="geometry" />
        </mxCell>
        <mxCell id="NPeCFhylCLNc86PD0ue4-14" value="" style="edgeStyle=orthogonalEdgeStyle;html=1;verticalAlign=bottom;endArrow=open;endSize=8;strokeColor=#ff0000;rounded=0;exitX=1;exitY=0.5;exitDx=0;exitDy=0;entryX=0;entryY=0.5;entryDx=0;entryDy=0;" edge="1" parent="NPeCFhylCLNc86PD0ue4-5" source="NPeCFhylCLNc86PD0ue4-11" target="NPeCFhylCLNc86PD0ue4-12">
          <mxGeometry relative="1" as="geometry">
            <mxPoint x="264.99999999999955" y="260" as="targetPoint" />
            <mxPoint x="265" y="170" as="sourcePoint" />
          </mxGeometry>
        </mxCell>
        <mxCell id="NPeCFhylCLNc86PD0ue4-17" value="" style="edgeStyle=orthogonalEdgeStyle;html=1;verticalAlign=bottom;endArrow=open;endSize=8;strokeColor=#ff0000;rounded=0;exitX=0;exitY=0.5;exitDx=0;exitDy=0;entryX=1;entryY=0.5;entryDx=0;entryDy=0;" edge="1" parent="NPeCFhylCLNc86PD0ue4-5" source="NPeCFhylCLNc86PD0ue4-15" target="NPeCFhylCLNc86PD0ue4-16">
          <mxGeometry relative="1" as="geometry">
            <mxPoint x="210" y="150" as="targetPoint" />
            <mxPoint x="161" y="150" as="sourcePoint" />
          </mxGeometry>
        </mxCell>
        <mxCell id="NPeCFhylCLNc86PD0ue4-20" value="" style="edgeStyle=orthogonalEdgeStyle;html=1;verticalAlign=bottom;endArrow=open;endSize=8;strokeColor=#ff0000;rounded=0;exitX=0.5;exitY=1;exitDx=0;exitDy=0;entryX=0.5;entryY=0;entryDx=0;entryDy=0;" edge="1" parent="NPeCFhylCLNc86PD0ue4-5" source="NPeCFhylCLNc86PD0ue4-16" target="NPeCFhylCLNc86PD0ue4-18">
          <mxGeometry relative="1" as="geometry">
            <mxPoint x="210" y="150" as="targetPoint" />
            <mxPoint x="161" y="150" as="sourcePoint" />
          </mxGeometry>
        </mxCell>
        <mxCell id="NPeCFhylCLNc86PD0ue4-22" value="Документы заполнены&amp;nbsp;&lt;div&gt;&amp;nbsp; &amp;nbsp; &amp;nbsp; &amp;nbsp; некорренктно&lt;/div&gt;" style="edgeStyle=orthogonalEdgeStyle;html=1;align=left;verticalAlign=bottom;endArrow=open;endSize=8;strokeColor=#ff0000;rounded=0;exitX=0;exitY=0.5;exitDx=0;exitDy=0;entryX=0;entryY=0.5;entryDx=0;entryDy=0;" edge="1" source="NPeCFhylCLNc86PD0ue4-21" parent="NPeCFhylCLNc86PD0ue4-5" target="NPeCFhylCLNc86PD0ue4-16">
          <mxGeometry x="-0.0722" y="-20" relative="1" as="geometry">
            <mxPoint x="439.99999999999955" y="440" as="targetPoint" />
            <mxPoint as="offset" />
          </mxGeometry>
        </mxCell>
        <mxCell id="NPeCFhylCLNc86PD0ue4-23" value="Документы заполнены&amp;nbsp;&lt;div&gt;&amp;nbsp; &amp;nbsp; &amp;nbsp; &amp;nbsp; &amp;nbsp; корренктно&lt;/div&gt;" style="edgeStyle=orthogonalEdgeStyle;html=1;align=left;verticalAlign=top;endArrow=open;endSize=8;strokeColor=#ff0000;rounded=0;exitX=0.5;exitY=1;exitDx=0;exitDy=0;" edge="1" source="NPeCFhylCLNc86PD0ue4-21" parent="NPeCFhylCLNc86PD0ue4-5" target="NPeCFhylCLNc86PD0ue4-28">
          <mxGeometry x="-0.75" y="10" relative="1" as="geometry">
            <mxPoint x="299.99999999999955" y="500" as="targetPoint" />
            <Array as="points">
              <mxPoint x="300" y="490" />
              <mxPoint x="300" y="490" />
            </Array>
            <mxPoint as="offset" />
          </mxGeometry>
        </mxCell>
        <mxCell id="NPeCFhylCLNc86PD0ue4-35" value="" style="edgeStyle=orthogonalEdgeStyle;html=1;verticalAlign=bottom;endArrow=open;endSize=8;strokeColor=#FF0000;rounded=0;entryX=0.5;entryY=0;entryDx=0;entryDy=0;exitX=0.492;exitY=0.736;exitDx=0;exitDy=0;exitPerimeter=0;" edge="1" parent="NPeCFhylCLNc86PD0ue4-5" source="NPeCFhylCLNc86PD0ue4-28" target="NPeCFhylCLNc86PD0ue4-34">
          <mxGeometry relative="1" as="geometry">
            <mxPoint x="519.9999999999995" y="560" as="targetPoint" />
            <mxPoint x="299.99999999999955" y="520" as="sourcePoint" />
            <Array as="points">
              <mxPoint x="300" y="540" />
              <mxPoint x="300" y="540" />
            </Array>
          </mxGeometry>
        </mxCell>
        <mxCell id="NPeCFhylCLNc86PD0ue4-37" value="" style="edgeStyle=orthogonalEdgeStyle;html=1;verticalAlign=bottom;endArrow=open;endSize=8;strokeColor=#ff0000;rounded=0;exitX=0;exitY=0.5;exitDx=0;exitDy=0;entryX=1;entryY=0.5;entryDx=0;entryDy=0;" edge="1" parent="NPeCFhylCLNc86PD0ue4-5" source="NPeCFhylCLNc86PD0ue4-34" target="NPeCFhylCLNc86PD0ue4-36">
          <mxGeometry relative="1" as="geometry">
            <mxPoint x="181" y="240" as="targetPoint" />
            <mxPoint x="229" y="240" as="sourcePoint" />
          </mxGeometry>
        </mxCell>
        <mxCell id="NPeCFhylCLNc86PD0ue4-48" value="" style="edgeStyle=orthogonalEdgeStyle;html=1;verticalAlign=bottom;endArrow=open;endSize=8;strokeColor=#FF0000;rounded=0;entryX=0.5;entryY=0;entryDx=0;entryDy=0;exitX=0.5;exitY=1;exitDx=0;exitDy=0;" edge="1" parent="NPeCFhylCLNc86PD0ue4-5" source="NPeCFhylCLNc86PD0ue4-36" target="NPeCFhylCLNc86PD0ue4-47">
          <mxGeometry relative="1" as="geometry">
            <mxPoint x="310" y="560" as="targetPoint" />
            <mxPoint x="310" y="527" as="sourcePoint" />
            <Array as="points">
              <mxPoint x="100" y="620" />
              <mxPoint x="510" y="620" />
            </Array>
          </mxGeometry>
        </mxCell>
        <mxCell id="NPeCFhylCLNc86PD0ue4-50" value="" style="edgeStyle=orthogonalEdgeStyle;html=1;verticalAlign=bottom;endArrow=open;endSize=8;strokeColor=#ff0000;rounded=0;exitX=0;exitY=0.5;exitDx=0;exitDy=0;entryX=1;entryY=0.5;entryDx=0;entryDy=0;" edge="1" parent="NPeCFhylCLNc86PD0ue4-5" source="NPeCFhylCLNc86PD0ue4-47" target="NPeCFhylCLNc86PD0ue4-49">
          <mxGeometry relative="1" as="geometry">
            <mxPoint x="191" y="585" as="targetPoint" />
            <mxPoint x="229" y="585" as="sourcePoint" />
          </mxGeometry>
        </mxCell>
      </root>
    </mxGraphModel>
  </diagram>
</mxfile>
